<svg width="70" height="70" viewBox="0 0 70 70" fill="none" xmlns="http://www.w3.org/2000/svg">
<path d="M35 0C15.6719 0 0 15.6719 0 35C0 54.3281 15.6719 70 35 70C54.3281 70 70 54.3281 70 35C70 15.6719 54.3281 0 35 0ZM46.2578 35.5391L29.1953 47.9531C29.1018 48.0203 28.9915 48.0605 28.8766 48.0691C28.7618 48.0777 28.6468 48.0545 28.5442 48.0021C28.4417 47.9496 28.3556 47.8699 28.2954 47.7716C28.2352 47.6734 28.2033 47.5605 28.2031 47.4453V22.6328C28.2027 22.5174 28.2343 22.4041 28.2944 22.3056C28.3544 22.207 28.4406 22.127 28.5434 22.0744C28.6461 22.0218 28.7614 21.9987 28.8765 22.0076C28.9916 22.0166 29.1019 22.0572 29.1953 22.125L46.2578 34.5312C46.3384 34.5883 46.4042 34.6638 46.4496 34.7515C46.4949 34.8391 46.5186 34.9364 46.5186 35.0352C46.5186 35.1339 46.4949 35.2312 46.4496 35.3189C46.4042 35.4065 46.3384 35.4821 46.2578 35.5391Z" fill="white"/>
</svg>
